<?xml version="1.0" encoding="UTF-8"?>
<svg version="1.1" xmlns="http://www.w3.org/2000/svg" width="300" height="300">
<path d="M0 0 C3.95949804 1.46410589 7.7476225 3.07506805 11.4375 5.125 C11.4375 5.785 11.4375 6.445 11.4375 7.125 C11.994375 7.351875 12.55125 7.57875 13.125 7.8125 C17.12188886 10.08100449 19.97716649 12.74399946 21.4375 17.125 C22.0975 17.125 22.7575 17.125 23.4375 17.125 C30.32083447 27.65405312 31.45906318 38.38045813 32.3125 50.625 C33.7658474 70.50344217 37.52032474 89.98115064 51.4375 105.125 C52.9225 105.62 52.9225 105.62 54.4375 106.125 C54.7675 107.115 55.0975 108.105 55.4375 109.125 C56.9225 109.62 56.9225 109.62 58.4375 110.125 C59.77599671 111.11807821 61.10901309 112.11857052 62.4375 113.125 C64.66352776 114.41753225 66.40319004 115.11813801 68.9375 115.625 C71.4375 116.125 71.4375 116.125 73.19140625 117.0859375 C76.06101286 118.41344247 78.74958601 118.79473738 81.875 119.25 C82.98746094 119.41757813 84.09992188 119.58515625 85.24609375 119.7578125 C88.0183915 120.07677944 90.6519227 120.19789361 93.4375 120.125 C94.74939145 116.18932564 94.54664872 112.45838472 94.50683594 108.35839844 C94.50204727 107.46212234 94.49725861 106.56584625 94.49232483 105.64241028 C94.47461056 102.6729937 94.44886791 99.70372092 94.421875 96.734375 C94.405182 94.67034937 94.38851983 92.60632348 94.37188721 90.54229736 C94.33538929 86.2112578 94.29416289 81.88028916 94.25048828 77.54931641 C94.19558753 72.00677641 94.15899683 66.4642782 94.12685776 60.92156601 C94.09895022 56.65601328 94.05789108 52.39065919 94.01325226 48.12525177 C93.99408911 46.08241972 93.97977673 44.03953608 93.97045135 41.99663544 C93.95607472 39.13382006 93.92313096 36.27177462 93.88574219 33.40917969 C93.88560623 32.56944107 93.88547028 31.72970245 93.8853302 30.86451721 C93.76836761 24.27497873 92.45416258 19.58980981 88.1875 14.375 C81.85628867 9.194918 75.1393519 7.96831326 67.1875 8.125 C65.27119809 8.16239126 63.35358981 8.17202061 61.4375 8.125 C60.4375 7.125 60.4375 7.125 60.3125 4.625 C60.4375 2.125 60.4375 2.125 61.4375 1.125 C64.51204761 1.02967672 67.56409158 0.9994862 70.63891602 1.01147461 C72.08754028 1.01125557 72.08754028 1.01125557 73.56542969 1.0110321 C76.77411099 1.01173166 79.98273503 1.01952603 83.19140625 1.02734375 C85.40958118 1.02920778 87.62775652 1.03063175 89.84593201 1.03163147 C95.69690071 1.03545784 101.54784477 1.04528914 107.39880371 1.05633545 C113.36417304 1.06654701 119.32954633 1.07112854 125.29492188 1.07617188 C137.00912544 1.08691131 148.72331067 1.10398915 160.4375 1.125 C161.5625 5.875 161.5625 5.875 160.4375 8.125 C159.63828125 8.09019531 158.8390625 8.05539063 158.015625 8.01953125 C150.00406829 7.8220633 143.10051426 8.80538487 135.4375 11.125 C135.4375 11.785 135.4375 12.445 135.4375 13.125 C134.10416667 14.45833333 132.77083333 15.79166667 131.4375 17.125 C126.27081186 23.63119988 127.29033274 33.38717027 127.23217773 41.33837891 C127.22227814 42.19815338 127.21237854 43.05792786 127.20217896 43.9437561 C127.17094215 46.74633157 127.14595847 49.5489239 127.12109375 52.3515625 C127.10049143 54.310256 127.07949417 56.26894538 127.05812073 58.22763062 C127.00323828 63.35342041 126.95368151 68.47924805 126.90527344 73.60510254 C126.85480955 78.84744589 126.79925411 84.08973509 126.74414062 89.33203125 C126.63697356 99.59630777 126.53543861 109.86063156 126.4375 120.125 C128.9926058 119.99010428 131.54705057 119.84852411 134.1015625 119.703125 C134.81965088 119.66590332 135.53773926 119.62868164 136.27758789 119.59033203 C147.91573026 118.91160675 158.50000317 114.66601295 167.4375 107.125 C168.0975 107.125 168.7575 107.125 169.4375 107.125 C169.746875 106.50625 170.05625 105.8875 170.375 105.25 C171.0625 103.875 171.75 102.5 172.4375 101.125 C173.0975 101.125 173.7575 101.125 174.4375 101.125 C174.87449219 100.24714844 174.87449219 100.24714844 175.3203125 99.3515625 C175.99409172 98.0087158 176.67441625 96.66908554 177.3671875 95.3359375 C181.84268158 86.64386223 186.4375 77.11463134 186.4375 67.125 C187.0975 67.125 187.7575 67.125 188.4375 67.125 C188.47508423 66.15844482 188.47508423 66.15844482 188.51342773 65.17236328 C188.63085346 62.19811076 188.752903 59.22406429 188.875 56.25 C188.91431641 55.23679688 188.95363281 54.22359375 188.99414062 53.1796875 C189.75525001 34.91306224 189.75525001 34.91306224 192.375 28.25 C192.88353516 26.92355469 192.88353516 26.92355469 193.40234375 25.5703125 C194.33359582 23.37044912 195.33807336 21.24497066 196.4375 19.125 C197.0975 19.125 197.7575 19.125 198.4375 19.125 C198.705625 18.5475 198.97375 17.97 199.25 17.375 C200.46679189 15.06949957 201.74083879 13.10443808 203.4375 11.125 C204.0975 11.125 204.7575 11.125 205.4375 11.125 C205.4375 10.465 205.4375 9.805 205.4375 9.125 C215.77845579 -0.56964606 230.7439199 -2.875 244.4375 -2.875 C244.81813221 -0.5489143 245.15019945 1.78555264 245.4375 4.125 C243.82568205 5.73681795 241.82961181 5.71183702 239.625 6.125 C236.53460537 6.70929913 233.48110667 7.33039872 230.4375 8.125 C230.4375 8.785 230.4375 9.445 230.4375 10.125 C229.7775 10.125 229.1175 10.125 228.4375 10.125 C228.128125 11.07375 227.81875 12.0225 227.5 13 C226.4375 16.125 226.4375 16.125 225.4375 18.125 C224.24893587 26.11706915 224.38450875 34.13256305 224.5 42.1875 C224.589065 52.98588916 224.00111548 63.44494782 222.4375 74.125 C221.7775 74.125 221.1175 74.125 220.4375 74.125 C220.7675 75.445 221.0975 76.765 221.4375 78.125 C220.7775 78.125 220.1175 78.125 219.4375 78.125 C219.499375 78.805625 219.56125 79.48625 219.625 80.1875 C219.37881737 84.04436125 218.07947838 86.63579594 216.4375 90.125 C215.7775 90.125 215.1175 90.125 214.4375 90.125 C214.23125 90.785 214.025 91.445 213.8125 92.125 C212.24023485 95.55539669 210.20874771 98.21379976 207.875 101.16015625 C206.3880721 103.0467775 206.3880721 103.0467775 205.5546875 105.11328125 C204.03084091 107.85727075 202.02793514 109.32593637 199.5625 111.25 C198.69882813 111.93320313 197.83515625 112.61640625 196.9453125 113.3203125 C194.81018807 114.85680392 192.78613559 115.97610034 190.4375 117.125 C189.7775 117.785 189.1175 118.445 188.4375 119.125 C186.89693786 119.9783644 185.33048717 120.78556833 183.75 121.5625 C182.92113281 121.97371094 182.09226563 122.38492188 181.23828125 122.80859375 C165.24232198 130.3269177 144.19164272 137.22492968 126.4375 134.125 C127.0975 134.455 127.7575 134.785 128.4375 135.125 C128.4375 136.115 128.4375 137.105 128.4375 138.125 C127.7775 138.125 127.1175 138.125 126.4375 138.125 C126.54542528 146.83573542 126.65814088 155.54639225 126.77683926 164.25698757 C126.83181801 168.30240288 126.88519547 172.34782567 126.93481445 176.39331055 C126.98283058 180.30317483 127.03518224 184.21295996 127.09044075 188.12272835 C127.11069697 189.60850088 127.12943565 191.09429497 127.14657402 192.58010674 C126.68376639 207.72775347 126.68376639 207.72775347 132.4375 221.125 C132.4375 221.785 132.4375 222.445 132.4375 223.125 C133.241875 223.393125 134.04625 223.66125 134.875 223.9375 C136.73347249 224.55699083 138.59075305 225.18424575 140.41796875 225.890625 C146.69697152 228.22380636 152.77215172 228.79793553 159.4375 229.125 C161.4375 234 161.4375 234 161.4375 235.125 C138.19886273 236.27197695 115.00343705 236.08651356 91.75 235.6875 C91.00270252 235.67468616 90.25540504 235.66187233 89.48546219 235.6486702 C80.13588568 235.48714471 70.78660021 235.31219291 61.4375 235.125 C61.4375 233.145 61.4375 231.165 61.4375 229.125 C62.65373047 229.08632813 62.65373047 229.08632813 63.89453125 229.046875 C70.92758135 228.68662564 76.77270249 227.64741303 83.29296875 224.96484375 C85.4375 224.125 85.4375 224.125 87.4375 224.125 C87.4375 223.465 87.4375 222.805 87.4375 222.125 C88.241875 221.361875 89.04625 220.59875 89.875 219.8125 C94.13857633 215.34094433 93.56326774 210.70207262 93.56689453 204.72021484 C93.56864685 203.9927858 93.57039917 203.26535675 93.57220459 202.5158844 C93.57658941 200.12254417 93.57369762 197.72927842 93.5703125 195.3359375 C93.57098636 193.66875189 93.57195707 192.00156638 93.57321167 190.3343811 C93.57468395 186.84595806 93.57254862 183.35756068 93.56787109 179.86914062 C93.56216522 175.39563653 93.5654612 170.92219233 93.57144356 166.44869041 C93.57505428 163.00865221 93.57390838 159.56862825 93.57131577 156.12858963 C93.57064837 154.47874571 93.57146838 152.82890049 93.57379532 151.17905807 C93.57633117 148.87633579 93.57246844 146.5737111 93.56689453 144.27099609 C93.56609894 142.96037201 93.56530334 141.64974792 93.56448364 140.29940796 C93.58387358 137.10069429 93.58387358 137.10069429 92.4375 134.125 C91.72053955 134.30458252 91.0035791 134.48416504 90.26489258 134.66918945 C87.27803069 135.15070842 85.16437572 134.95343789 82.19921875 134.41796875 C81.21373047 134.24330078 80.22824219 134.06863281 79.21289062 133.88867188 C78.19388672 133.69853516 77.17488281 133.50839844 76.125 133.3125 C74.61389648 133.04469727 74.61389648 133.04469727 73.07226562 132.77148438 C65.40827229 131.38847059 57.94622218 129.5648986 50.4375 127.5 C49.48875 127.23960937 48.54 126.97921875 47.5625 126.7109375 C46.86125 126.51757812 46.16 126.32421875 45.4375 126.125 C45.4375 125.465 45.4375 124.805 45.4375 124.125 C44.1175 124.125 42.7975 124.125 41.4375 124.125 C41.4375 123.465 41.4375 122.805 41.4375 122.125 C40.6125 121.898125 39.7875 121.67125 38.9375 121.4375 C35.37129495 120.10017311 32.52994966 118.4268544 29.3671875 116.34375 C27.47128342 115.08399322 27.47128342 115.08399322 25.4140625 114.2109375 C23.01579566 112.89331264 21.68137495 111.35057665 19.9375 109.25 C18.01568838 106.96862363 16.13985618 104.83498808 14 102.75 C12.4375 101.125 12.4375 101.125 12.4375 99.125 C11.7775 99.125 11.1175 99.125 10.4375 99.125 C7.4375 93.375 7.4375 93.375 7.4375 91.125 C6.7775 91.125 6.1175 91.125 5.4375 91.125 C5.31632812 90.48691406 5.19515625 89.84882812 5.0703125 89.19140625 C4.90273438 88.36511719 4.73515625 87.53882812 4.5625 86.6875 C4.40007813 85.86378906 4.23765625 85.04007812 4.0703125 84.19140625 C3.86148438 83.50949219 3.65265625 82.82757813 3.4375 82.125 C2.7775 81.795 2.1175 81.465 1.4375 81.125 C0.62109375 78.31640625 0.62109375 78.31640625 -0.125 74.6875 C-0.37378906 73.51316406 -0.62257813 72.33882813 -0.87890625 71.12890625 C-2.31175852 63.33373463 -2.71110165 55.52818733 -2.66015625 47.6171875 C-2.6587413 46.76569122 -2.65732635 45.91419495 -2.65586853 45.03689575 C-2.65033919 42.35789241 -2.63780074 39.67897743 -2.625 37 C-2.61997584 35.16666789 -2.61541455 33.33333444 -2.61132812 31.5 C-2.60039306 27.04163341 -2.58317872 22.58333161 -2.5625 18.125 C-3.2225 17.795 -3.8825 17.465 -4.5625 17.125 C-5.5625 15.125 -6.5625 13.125 -7.5625 11.125 C-9.97557232 7.90757024 -12.73679949 7.15499629 -16.5625 6.125 C-17.820625 5.96 -19.07875 5.795 -20.375 5.625 C-21.426875 5.46 -22.47875 5.295 -23.5625 5.125 C-24.91132814 2.42734372 -24.36588265 0.97335666 -23.5625 -1.875 C-17.38144893 -4.96552553 -6.2994018 -2.06291577 0 0 Z " fill="#010101" transform="translate(38.5625,36.875)"/>
<path d="M0 0 C4.875 2.75 4.875 2.75 6 5 C5.01 6.485 5.01 6.485 4 8 C2.35 7.67 0.7 7.34 -1 7 C-1.04254356 5.00045254 -1.04080783 2.99958364 -1 1 C-0.67 0.67 -0.34 0.34 0 0 Z " fill="#080808" transform="translate(50,129)"/>
<path d="M0 0 C1.32 0.33 2.64 0.66 4 1 C3.01 2.485 3.01 2.485 2 4 C1.34 4 0.68 4 0 4 C-0.33 4.99 -0.66 5.98 -1 7 C-1.66 7 -2.32 7 -3 7 C-3.33 7.66 -3.66 8.32 -4 9 C-4.66 8.34 -5.32 7.68 -6 7 C-4.71937515 5.2925002 -3.38232443 3.62626404 -2 2 C-1.34 2 -0.68 2 0 2 C0 1.34 0 0.68 0 0 Z " fill="#0A0A0A" transform="translate(244,46)"/>
<path d="M0 0 C0.66 0.33 1.32 0.66 2 1 C2 1.99 2 2.98 2 4 C1.01 4.33 0.02 4.66 -1 5 C-2.20882096 7.00016466 -2.20882096 7.00016466 -3 9 C-4.125 5.25 -4.125 5.25 -3 3 C-2.34 3 -1.68 3 -1 3 C-0.67 2.01 -0.34 1.02 0 0 Z " fill="#070707" transform="translate(214,135)"/>
<path d="M0 0 C-2.35953094 2.35953094 -3.77895617 2.49141413 -7 3 C-7.66 2.01 -8.32 1.02 -9 0 C-5.93109813 -1.53445094 -3.29905734 -0.54984289 0 0 Z " fill="#090909" transform="translate(188,157)"/>
<path d="M0 0 C2.97 1.98 2.97 1.98 6 4 C4.02 4.99 4.02 4.99 2 6 C0 2.25 0 2.25 0 0 Z " fill="#080808" transform="translate(67,148)"/>
<path d="M0 0 C0.99 0.33 1.98 0.66 3 1 C1.515 4.96 1.515 4.96 0 9 C-0.33 9 -0.66 9 -1 9 C-0.67 6.03 -0.34 3.06 0 0 Z " fill="#070707" transform="translate(232,62)"/>
<path d="M0 0 C2 1 2 1 2 1 Z " fill="#000000" transform="translate(130,156)"/>
<path d="" fill="#FFFFFF" transform="translate(0,0)"/>
<path d="" fill="#FFFFFF" transform="translate(0,0)"/>
<path d="" fill="#FFFFFF" transform="translate(0,0)"/>
<path d="" fill="#FFFFFF" transform="translate(0,0)"/>
<path d="" fill="#FFFFFF" transform="translate(0,0)"/>
<path d="" fill="#FFFFFF" transform="translate(0,0)"/>
<path d="" fill="#FFFFFF" transform="translate(0,0)"/>
<path d="" fill="#FFFFFF" transform="translate(0,0)"/>
<path d="" fill="#FFFFFF" transform="translate(0,0)"/>
<path d="" fill="#FFFFFF" transform="translate(0,0)"/>
<path d="" fill="#FFFFFF" transform="translate(0,0)"/>
<path d="" fill="#000000" transform="translate(0,0)"/>
<path d="" fill="#FFFFFF" transform="translate(0,0)"/>
<path d="" fill="#000000" transform="translate(0,0)"/>
<path d="" fill="#000000" transform="translate(0,0)"/>
<path d="" fill="#FFFFFF" transform="translate(0,0)"/>
<path d="" fill="#FFFFFF" transform="translate(0,0)"/>
<path d="" fill="#FFFFFF" transform="translate(0,0)"/>
<path d="" fill="#000000" transform="translate(0,0)"/>
<path d="" fill="#FFFFFF" transform="translate(0,0)"/>
<path d="" fill="#FFFFFF" transform="translate(0,0)"/>
<path d="" fill="#FFFFFF" transform="translate(0,0)"/>
<path d="" fill="#FFFFFF" transform="translate(0,0)"/>
<path d="" fill="#FFFFFF" transform="translate(0,0)"/>
<path d="" fill="#FFFFFF" transform="translate(0,0)"/>
<path d="" fill="#FFFFFF" transform="translate(0,0)"/>
<path d="" fill="#FFFFFF" transform="translate(0,0)"/>
<path d="" fill="#FFFFFF" transform="translate(0,0)"/>
<path d="" fill="#FFFFFF" transform="translate(0,0)"/>
<path d="" fill="#FFFFFF" transform="translate(0,0)"/>
<path d="" fill="#FFFFFF" transform="translate(0,0)"/>
<path d="" fill="#FFFFFF" transform="translate(0,0)"/>
<path d="" fill="#000000" transform="translate(0,0)"/>
<path d="" fill="#FFFFFF" transform="translate(0,0)"/>
<path d="" fill="#000000" transform="translate(0,0)"/>
<path d="" fill="#FFFFFF" transform="translate(0,0)"/>
<path d="" fill="#000000" transform="translate(0,0)"/>
<path d="" fill="#FFFFFF" transform="translate(0,0)"/>
<path d="" fill="#000000" transform="translate(0,0)"/>
<path d="" fill="#FFFFFF" transform="translate(0,0)"/>
<path d="" fill="#000000" transform="translate(0,0)"/>
<path d="" fill="#000000" transform="translate(0,0)"/>
<path d="" fill="#FFFFFF" transform="translate(0,0)"/>
<path d="" fill="#FFFFFF" transform="translate(0,0)"/>
<path d="" fill="#FFFFFF" transform="translate(0,0)"/>
<path d="" fill="#FFFFFF" transform="translate(0,0)"/>
<path d="" fill="#FFFFFF" transform="translate(0,0)"/>
<path d="" fill="#FFFFFF" transform="translate(0,0)"/>
<path d="" fill="#FFFFFF" transform="translate(0,0)"/>
<path d="" fill="#FFFFFF" transform="translate(0,0)"/>
<path d="" fill="#FFFFFF" transform="translate(0,0)"/>
<path d="" fill="#FFFFFF" transform="translate(0,0)"/>
<path d="" fill="#FFFFFF" transform="translate(0,0)"/>
<path d="" fill="#FFFFFF" transform="translate(0,0)"/>
<path d="" fill="#FFFFFF" transform="translate(0,0)"/>
<path d="" fill="#FFFFFF" transform="translate(0,0)"/>
<path d="" fill="#000000" transform="translate(0,0)"/>
<path d="" fill="#FFFFFF" transform="translate(0,0)"/>
<path d="" fill="#000000" transform="translate(0,0)"/>
<path d="" fill="#FFFFFF" transform="translate(0,0)"/>
<path d="" fill="#FFFFFF" transform="translate(0,0)"/>
<path d="" fill="#000000" transform="translate(0,0)"/>
<path d="" fill="#000000" transform="translate(0,0)"/>
<path d="" fill="#FFFFFF" transform="translate(0,0)"/>
<path d="" fill="#FFFFFF" transform="translate(0,0)"/>
<path d="" fill="#FFFFFF" transform="translate(0,0)"/>
<path d="" fill="#FFFFFF" transform="translate(0,0)"/>
<path d="" fill="#FFFFFF" transform="translate(0,0)"/>
<path d="" fill="#FEFFFF" transform="translate(0,0)"/>
<path d="" fill="#FFFFFF" transform="translate(0,0)"/>
<path d="" fill="#FFFFFF" transform="translate(0,0)"/>
<path d="" fill="#FFFFFF" transform="translate(0,0)"/>
<path d="" fill="#FFFFFF" transform="translate(0,0)"/>
<path d="" fill="#FFFFFF" transform="translate(0,0)"/>
<path d="" fill="#FFFFFF" transform="translate(0,0)"/>
</svg>
